<?xml version="1.0" encoding="UTF-8" standalone="no"?>
<!DOCTYPE svg PUBLIC "-//W3C//DTD SVG 1.1//EN"
 "http://www.w3.org/Graphics/SVG/1.1/DTD/svg11.dtd">
<!-- Generated by graphviz version 3.0.0 (20220227.1548)
 -->
<!-- Pages: 1 -->
<svg width="313pt" height="125pt"
 viewBox="0.00 0.00 312.70 125.00" xmlns="http://www.w3.org/2000/svg" xmlns:xlink="http://www.w3.org/1999/xlink">
<g id="graph0" class="graph" transform="scale(1 1) rotate(0) translate(4 121)">
<polygon fill="white" stroke="transparent" points="-4,4 -4,-121 308.7,-121 308.7,4 -4,4"/>
<g id="clust1" class="cluster">
<title>cluster_0</title>
<polygon fill="none" stroke="black" points="145,-8 145,-109 296.7,-109 296.7,-8 145,-8"/>
<text text-anchor="middle" x="220.85" y="-15.8" font-family="Times,serif" font-size="14.00">n</text>
</g>
<!-- p_x_y -->
<g id="node1" class="node">
<title>p_x_y</title>
<polygon fill="none" stroke="black" points="215,-101 153,-101 153,-39 215,-39 215,-101"/>
<text text-anchor="middle" x="184" y="-66.3" font-family="Times,serif" font-size="14.00">P(xi|y)</text>
</g>
<!-- x -->
<g id="node2" class="node">
<title>x</title>
<ellipse fill="gray" stroke="black" cx="269.85" cy="-70" rx="18.7" ry="18.7"/>
<text text-anchor="middle" x="269.85" y="-66.3" font-family="Times,serif" font-size="14.00">xi</text>
</g>
<!-- p_x_y&#45;&gt;x -->
<g id="edge1" class="edge">
<title>p_x_y&#45;&gt;x</title>
<path fill="none" stroke="black" d="M215.27,-70C227.09,-70 240.26,-70 250.58,-70"/>
</g>
<!-- p_y -->
<g id="node3" class="node">
<title>p_y</title>
<polygon fill="none" stroke="black" points="45,-92.5 0,-92.5 0,-47.5 45,-47.5 45,-92.5"/>
<text text-anchor="middle" x="22.5" y="-66.3" font-family="Times,serif" font-size="14.00">P(y)</text>
</g>
<!-- y -->
<g id="node4" class="node">
<title>y</title>
<ellipse fill="none" stroke="black" cx="99" cy="-70" rx="18" ry="18"/>
<text text-anchor="middle" x="99" y="-66.3" font-family="Times,serif" font-size="14.00">y</text>
</g>
<!-- p_y&#45;&gt;y -->
<g id="edge2" class="edge">
<title>p_y&#45;&gt;y</title>
<path fill="none" stroke="black" d="M45.05,-70C56.39,-70 70.12,-70 80.75,-70"/>
</g>
<!-- y&#45;&gt;p_x_y -->
<g id="edge3" class="edge">
<title>y&#45;&gt;p_x_y</title>
<path fill="none" stroke="black" d="M117.2,-70C127.45,-70 140.77,-70 152.73,-70"/>
</g>
</g>
</svg>
