<?xml version="1.0" encoding="UTF-8" standalone="no"?>
<!DOCTYPE svg PUBLIC "-//W3C//DTD SVG 1.1//EN"
 "http://www.w3.org/Graphics/SVG/1.1/DTD/svg11.dtd">
<!-- Generated by graphviz version 3.0.0 (20220227.1548)
 -->
<!-- Pages: 1 -->
<svg width="343pt" height="114pt"
 viewBox="0.00 0.00 343.20 114.20" xmlns="http://www.w3.org/2000/svg" xmlns:xlink="http://www.w3.org/1999/xlink">
<g id="graph0" class="graph" transform="scale(1 1) rotate(0) translate(4 110.2)">
<polygon fill="white" stroke="transparent" points="-4,4 -4,-110.2 339.2,-110.2 339.2,4 -4,4"/>
<!-- p_x_y -->
<g id="node1" class="node">
<title>p_x_y</title>
<polygon fill="none" stroke="black" points="255,-104.1 153,-104.1 153,-2.1 255,-2.1 255,-104.1"/>
<text text-anchor="middle" x="204" y="-49.4" font-family="Times,serif" font-size="14.00">P(x1,..,xn|y)</text>
</g>
<!-- x1 -->
<g id="node4" class="node">
<title>x1</title>
<ellipse fill="gray" stroke="black" cx="313.1" cy="-84.1" rx="22.2" ry="22.2"/>
<text text-anchor="middle" x="313.1" y="-80.4" font-family="Times,serif" font-size="14.00">x1</text>
</g>
<!-- p_x_y&#45;&gt;x1 -->
<g id="edge1" class="edge">
<title>p_x_y&#45;&gt;x1</title>
<path fill="none" stroke="black" d="M255.1,-67.6C268.06,-71.35 281.28,-75.18 291.73,-78.2"/>
</g>
<!-- xn -->
<g id="node5" class="node">
<title>xn</title>
<ellipse fill="gray" stroke="black" cx="313.1" cy="-22.1" rx="22.2" ry="22.2"/>
<text text-anchor="middle" x="313.1" y="-18.4" font-family="Times,serif" font-size="14.00">xn</text>
</g>
<!-- p_x_y&#45;&gt;xn -->
<g id="edge2" class="edge">
<title>p_x_y&#45;&gt;xn</title>
<path fill="none" stroke="black" d="M255.1,-38.6C268.06,-34.85 281.28,-31.02 291.73,-27.99"/>
</g>
<!-- p_y -->
<g id="node2" class="node">
<title>p_y</title>
<polygon fill="none" stroke="black" points="45,-75.6 0,-75.6 0,-30.6 45,-30.6 45,-75.6"/>
<text text-anchor="middle" x="22.5" y="-49.4" font-family="Times,serif" font-size="14.00">P(y)</text>
</g>
<!-- y -->
<g id="node3" class="node">
<title>y</title>
<ellipse fill="none" stroke="black" cx="99" cy="-53.1" rx="18" ry="18"/>
<text text-anchor="middle" x="99" y="-49.4" font-family="Times,serif" font-size="14.00">y</text>
</g>
<!-- p_y&#45;&gt;y -->
<g id="edge3" class="edge">
<title>p_y&#45;&gt;y</title>
<path fill="none" stroke="black" d="M45.05,-53.1C56.39,-53.1 70.12,-53.1 80.75,-53.1"/>
</g>
<!-- y&#45;&gt;p_x_y -->
<g id="edge4" class="edge">
<title>y&#45;&gt;p_x_y</title>
<path fill="none" stroke="black" d="M117.01,-53.1C126.84,-53.1 139.77,-53.1 152.6,-53.1"/>
</g>
</g>
</svg>
