<?xml version="1.0" encoding="UTF-8" standalone="no"?>
<!DOCTYPE svg PUBLIC "-//W3C//DTD SVG 1.1//EN"
 "http://www.w3.org/Graphics/SVG/1.1/DTD/svg11.dtd">
<!-- Generated by graphviz version 3.0.0 (20220227.1548)
 -->
<!-- Title: G Pages: 1 -->
<svg width="510pt" height="193pt"
 viewBox="0.00 0.00 510.39 192.50" xmlns="http://www.w3.org/2000/svg" xmlns:xlink="http://www.w3.org/1999/xlink">
<g id="graph0" class="graph" transform="scale(1 1) rotate(0) translate(4 188.5)">
<title>G</title>
<polygon fill="white" stroke="transparent" points="-4,4 -4,-188.5 506.39,-188.5 506.39,4 -4,4"/>
<g id="clust1" class="cluster">
<title>cluster_0</title>
<polygon fill="none" stroke="black" points="147,-8 147,-131 494.39,-131 494.39,-8 147,-8"/>
<text text-anchor="middle" x="320.7" y="-15.8" font-family="Times,serif" font-size="14.00">N</text>
</g>
<!-- p_x -->
<g id="node1" class="node">
<title>p_x</title>
<polygon fill="none" stroke="black" points="219,-113 155,-113 155,-49 219,-49 219,-113"/>
<text text-anchor="middle" x="187" y="-77.3" font-family="Times,serif" font-size="14.00">P(xi|φ)</text>
</g>
<!-- x -->
<g id="node3" class="node">
<title>x</title>
<ellipse fill="gray" stroke="black" cx="273.85" cy="-81" rx="18.7" ry="18.7"/>
<text text-anchor="middle" x="273.85" y="-77.3" font-family="Times,serif" font-size="14.00">xi</text>
</g>
<!-- p_x&#45;&gt;x -->
<g id="edge3" class="edge">
<title>p_x&#45;&gt;x</title>
<path fill="none" stroke="black" d="M219.11,-81C231.03,-81 244.23,-81 254.57,-81"/>
</g>
<!-- p_y_x -->
<g id="node2" class="node">
<title>p_y_x</title>
<polygon fill="none" stroke="black" points="412.7,-123 328.7,-123 328.7,-39 412.7,-39 412.7,-123"/>
<text text-anchor="middle" x="370.7" y="-77.3" font-family="Times,serif" font-size="14.00">P(yi|xi, θ)</text>
</g>
<!-- y -->
<g id="node4" class="node">
<title>y</title>
<ellipse fill="gray" stroke="black" cx="467.54" cy="-81" rx="18.7" ry="18.7"/>
<text text-anchor="middle" x="467.54" y="-77.3" font-family="Times,serif" font-size="14.00">yi</text>
</g>
<!-- p_y_x&#45;&gt;y -->
<g id="edge7" class="edge">
<title>p_y_x&#45;&gt;y</title>
<path fill="none" stroke="black" d="M412.75,-81C425.16,-81 438.17,-81 448.29,-81"/>
</g>
<!-- x&#45;&gt;p_y_x -->
<g id="edge5" class="edge">
<title>x&#45;&gt;p_y_x</title>
<path fill="none" stroke="black" d="M293.14,-81C303.26,-81 316.27,-81 328.68,-81"/>
</g>
<!-- p_t1 -->
<g id="node5" class="node">
<title>p_t1</title>
<polygon fill="none" stroke="black" points="209.5,-184.5 164.5,-184.5 164.5,-139.5 209.5,-139.5 209.5,-184.5"/>
<text text-anchor="middle" x="187" y="-158.3" font-family="Times,serif" font-size="14.00">P(θ)</text>
</g>
<!-- t1 -->
<g id="node7" class="node">
<title>t1</title>
<ellipse fill="none" stroke="black" cx="273.85" cy="-159" rx="18" ry="18"/>
<text text-anchor="middle" x="273.85" y="-155.3" font-family="Times,serif" font-size="14.00">θ</text>
</g>
<!-- p_t1&#45;&gt;t1 -->
<g id="edge4" class="edge">
<title>p_t1&#45;&gt;t1</title>
<path fill="none" stroke="black" d="M209.85,-161.23C224.09,-160.72 242.41,-160.08 255.62,-159.61"/>
</g>
<!-- p_t2 -->
<g id="node6" class="node">
<title>p_t2</title>
<polygon fill="none" stroke="black" points="47,-104.5 0,-104.5 0,-57.5 47,-57.5 47,-104.5"/>
<text text-anchor="middle" x="23.5" y="-77.3" font-family="Times,serif" font-size="14.00">P(φ)</text>
</g>
<!-- t2 -->
<g id="node8" class="node">
<title>t2</title>
<ellipse fill="none" stroke="black" cx="101" cy="-81" rx="18" ry="18"/>
<text text-anchor="middle" x="101" y="-77.3" font-family="Times,serif" font-size="14.00">φ</text>
</g>
<!-- p_t2&#45;&gt;t2 -->
<g id="edge1" class="edge">
<title>p_t2&#45;&gt;t2</title>
<path fill="none" stroke="black" d="M47.15,-81C58.62,-81 72.31,-81 82.89,-81"/>
</g>
<!-- t1&#45;&gt;p_y_x -->
<g id="edge6" class="edge">
<title>t1&#45;&gt;p_y_x</title>
<path fill="none" stroke="black" d="M288.44,-147.82C298.99,-139.15 314.2,-126.63 328.62,-114.78"/>
</g>
<!-- t2&#45;&gt;p_x -->
<g id="edge2" class="edge">
<title>t2&#45;&gt;p_x</title>
<path fill="none" stroke="black" d="M119.4,-81C129.59,-81 142.76,-81 154.7,-81"/>
</g>
</g>
</svg>
