<?xml version="1.0" encoding="UTF-8" standalone="no"?>
<!DOCTYPE svg PUBLIC "-//W3C//DTD SVG 1.1//EN"
 "http://www.w3.org/Graphics/SVG/1.1/DTD/svg11.dtd">
<!-- Generated by graphviz version 3.0.0 (20220227.1548)
 -->
<!-- Pages: 1 -->
<svg width="291pt" height="66pt"
 viewBox="0.00 0.00 291.00 66.00" xmlns="http://www.w3.org/2000/svg" xmlns:xlink="http://www.w3.org/1999/xlink">
<g id="graph0" class="graph" transform="scale(1 1) rotate(0) translate(4 62)">
<polygon fill="white" stroke="transparent" points="-4,4 -4,-62 287,-62 287,4 -4,4"/>
<!-- p_x_y -->
<g id="node1" class="node">
<title>p_x_y</title>
<polygon fill="none" stroke="black" points="211,-58 153,-58 153,0 211,0 211,-58"/>
<text text-anchor="middle" x="182" y="-25.3" font-family="Times,serif" font-size="14.00">P(x|y)</text>
</g>
<!-- x -->
<g id="node4" class="node">
<title>x</title>
<ellipse fill="gray" stroke="black" cx="265" cy="-29" rx="18" ry="18"/>
<text text-anchor="middle" x="265" y="-25.3" font-family="Times,serif" font-size="14.00">x</text>
</g>
<!-- p_x_y&#45;&gt;x -->
<g id="edge1" class="edge">
<title>p_x_y&#45;&gt;x</title>
<path fill="none" stroke="black" d="M211.33,-29C223.19,-29 236.59,-29 246.9,-29"/>
</g>
<!-- p_y -->
<g id="node2" class="node">
<title>p_y</title>
<polygon fill="none" stroke="black" points="45,-51.5 0,-51.5 0,-6.5 45,-6.5 45,-51.5"/>
<text text-anchor="middle" x="22.5" y="-25.3" font-family="Times,serif" font-size="14.00">P(y)</text>
</g>
<!-- y -->
<g id="node3" class="node">
<title>y</title>
<ellipse fill="none" stroke="black" cx="99" cy="-29" rx="18" ry="18"/>
<text text-anchor="middle" x="99" y="-25.3" font-family="Times,serif" font-size="14.00">y</text>
</g>
<!-- p_y&#45;&gt;y -->
<g id="edge2" class="edge">
<title>p_y&#45;&gt;y</title>
<path fill="none" stroke="black" d="M45.05,-29C56.39,-29 70.12,-29 80.75,-29"/>
</g>
<!-- y&#45;&gt;p_x_y -->
<g id="edge3" class="edge">
<title>y&#45;&gt;p_x_y</title>
<path fill="none" stroke="black" d="M117.18,-29C127.49,-29 140.86,-29 152.69,-29"/>
</g>
</g>
</svg>
