<?xml version="1.0" encoding="UTF-8" standalone="no"?>
<!DOCTYPE svg PUBLIC "-//W3C//DTD SVG 1.1//EN"
 "http://www.w3.org/Graphics/SVG/1.1/DTD/svg11.dtd">
<!-- Generated by graphviz version 3.0.0 (20220227.1548)
 -->
<!-- Title: G Pages: 1 -->
<svg width="510pt" height="193pt"
 viewBox="0.00 0.00 510.39 192.50" xmlns="http://www.w3.org/2000/svg" xmlns:xlink="http://www.w3.org/1999/xlink">
<g id="graph0" class="graph" transform="scale(1 1) rotate(0) translate(4 188.5)">
<title>G</title>
<polygon fill="white" stroke="transparent" points="-4,4 -4,-188.5 506.39,-188.5 506.39,4 -4,4"/>
<g id="clust1" class="cluster">
<title>cluster_0</title>
<polygon fill="none" stroke="black" points="147,-8 147,-131 494.39,-131 494.39,-8 147,-8"/>
<text text-anchor="middle" x="320.7" y="-115.8" font-family="Times,serif" font-size="14.00">N</text>
</g>
<!-- p_x -->
<g id="node1" class="node">
<title>p_x</title>
<polygon fill="none" stroke="black" points="219,-90 155,-90 155,-26 219,-26 219,-90"/>
<text text-anchor="middle" x="187" y="-54.3" font-family="Times,serif" font-size="14.00">P(xi|φ)</text>
</g>
<!-- x -->
<g id="node3" class="node">
<title>x</title>
<ellipse fill="gray" stroke="black" cx="273.85" cy="-58" rx="18.7" ry="18.7"/>
<text text-anchor="middle" x="273.85" y="-54.3" font-family="Times,serif" font-size="14.00">xi</text>
</g>
<!-- p_x&#45;&gt;x -->
<g id="edge3" class="edge">
<title>p_x&#45;&gt;x</title>
<path fill="none" stroke="black" d="M219.11,-58C231.03,-58 244.23,-58 254.57,-58"/>
</g>
<!-- p_y_x -->
<g id="node2" class="node">
<title>p_y_x</title>
<polygon fill="none" stroke="black" points="412.7,-100 328.7,-100 328.7,-16 412.7,-16 412.7,-100"/>
<text text-anchor="middle" x="370.7" y="-54.3" font-family="Times,serif" font-size="14.00">P(yi|xi, θ)</text>
</g>
<!-- y -->
<g id="node4" class="node">
<title>y</title>
<ellipse fill="gray" stroke="black" cx="467.54" cy="-58" rx="18.7" ry="18.7"/>
<text text-anchor="middle" x="467.54" y="-54.3" font-family="Times,serif" font-size="14.00">yi</text>
</g>
<!-- p_y_x&#45;&gt;y -->
<g id="edge7" class="edge">
<title>p_y_x&#45;&gt;y</title>
<path fill="none" stroke="black" d="M412.75,-58C425.16,-58 438.17,-58 448.29,-58"/>
</g>
<!-- x&#45;&gt;p_y_x -->
<g id="edge5" class="edge">
<title>x&#45;&gt;p_y_x</title>
<path fill="none" stroke="black" d="M293.14,-58C303.26,-58 316.27,-58 328.68,-58"/>
</g>
<!-- p_t1 -->
<g id="node5" class="node">
<title>p_t1</title>
<polygon fill="none" stroke="black" points="209.5,-184.5 164.5,-184.5 164.5,-139.5 209.5,-139.5 209.5,-184.5"/>
<text text-anchor="middle" x="187" y="-158.3" font-family="Times,serif" font-size="14.00">P(θ)</text>
</g>
<!-- t1 -->
<g id="node7" class="node">
<title>t1</title>
<ellipse fill="none" stroke="black" cx="273.85" cy="-159" rx="18" ry="18"/>
<text text-anchor="middle" x="273.85" y="-155.3" font-family="Times,serif" font-size="14.00">θ</text>
</g>
<!-- p_t1&#45;&gt;t1 -->
<g id="edge4" class="edge">
<title>p_t1&#45;&gt;t1</title>
<path fill="none" stroke="black" d="M209.85,-161.23C224.09,-160.72 242.41,-160.08 255.62,-159.61"/>
</g>
<!-- p_t2 -->
<g id="node6" class="node">
<title>p_t2</title>
<polygon fill="none" stroke="black" points="47,-81.5 0,-81.5 0,-34.5 47,-34.5 47,-81.5"/>
<text text-anchor="middle" x="23.5" y="-54.3" font-family="Times,serif" font-size="14.00">P(φ)</text>
</g>
<!-- t2 -->
<g id="node8" class="node">
<title>t2</title>
<ellipse fill="none" stroke="black" cx="101" cy="-58" rx="18" ry="18"/>
<text text-anchor="middle" x="101" y="-54.3" font-family="Times,serif" font-size="14.00">φ</text>
</g>
<!-- p_t2&#45;&gt;t2 -->
<g id="edge1" class="edge">
<title>p_t2&#45;&gt;t2</title>
<path fill="none" stroke="black" d="M47.15,-58C58.62,-58 72.31,-58 82.89,-58"/>
</g>
<!-- t1&#45;&gt;p_y_x -->
<g id="edge6" class="edge">
<title>t1&#45;&gt;p_y_x</title>
<path fill="none" stroke="black" d="M286.86,-146.21C297.73,-134.64 314.36,-116.93 329.87,-100.41"/>
</g>
<!-- t2&#45;&gt;p_x -->
<g id="edge2" class="edge">
<title>t2&#45;&gt;p_x</title>
<path fill="none" stroke="black" d="M119.4,-58C129.59,-58 142.76,-58 154.7,-58"/>
</g>
</g>
</svg>
