<?xml version="1.0" encoding="UTF-8" standalone="no"?>
<!DOCTYPE svg PUBLIC "-//W3C//DTD SVG 1.1//EN"
 "http://www.w3.org/Graphics/SVG/1.1/DTD/svg11.dtd">
<!-- Generated by graphviz version 3.0.0 (20220227.1548)
 -->
<!-- Title: G Pages: 1 -->
<svg width="383pt" height="190pt"
 viewBox="0.00 0.00 383.00 190.25" xmlns="http://www.w3.org/2000/svg" xmlns:xlink="http://www.w3.org/1999/xlink">
<g id="graph0" class="graph" transform="scale(1 1) rotate(0) translate(4 186.25)">
<title>G</title>
<polygon fill="white" stroke="transparent" points="-4,4 -4,-186.25 379,-186.25 379,4 -4,4"/>
<!-- p_t -->
<g id="node1" class="node">
<title>p_t</title>
<polygon fill="none" stroke="black" points="61,-182.25 0,-182.25 0,-121.25 61,-121.25 61,-182.25"/>
<text text-anchor="middle" x="30.5" y="-148.05" font-family="Times,serif" font-size="14.00">P(θ|D)</text>
</g>
<!-- t -->
<g id="node3" class="node">
<title>t</title>
<ellipse fill="none" stroke="black" cx="123" cy="-151.75" rx="18" ry="18"/>
<text text-anchor="middle" x="123" y="-148.05" font-family="Times,serif" font-size="14.00">θ</text>
</g>
<!-- p_t&#45;&gt;t -->
<g id="edge1" class="edge">
<title>p_t&#45;&gt;t</title>
<path fill="none" stroke="black" d="M61.13,-151.75C75.67,-151.75 92.66,-151.75 104.99,-151.75"/>
</g>
<!-- p_y_x_pred -->
<g id="node2" class="node">
<title>p_y_x_pred</title>
<polygon fill="none" stroke="black" points="303,-148.75 185,-148.75 185,-30.75 303,-30.75 303,-148.75"/>
<text text-anchor="middle" x="244" y="-86.05" font-family="Times,serif" font-size="14.00">P(Y|Xo, Xm, θ)</text>
</g>
<!-- Y -->
<g id="node4" class="node">
<title>Y</title>
<ellipse fill="none" stroke="black" cx="357" cy="-89.75" rx="18" ry="18"/>
<text text-anchor="middle" x="357" y="-86.05" font-family="Times,serif" font-size="14.00">Y</text>
</g>
<!-- p_y_x_pred&#45;&gt;Y -->
<g id="edge5" class="edge">
<title>p_y_x_pred&#45;&gt;Y</title>
<path fill="none" stroke="black" d="M303.1,-89.75C316.1,-89.75 328.92,-89.75 338.68,-89.75"/>
</g>
<!-- t&#45;&gt;p_y_x_pred -->
<g id="edge2" class="edge">
<title>t&#45;&gt;p_y_x_pred</title>
<path fill="none" stroke="black" d="M139.55,-143.64C151.27,-137.54 168.13,-128.76 184.84,-120.05"/>
</g>
<!-- Xm -->
<g id="node5" class="node">
<title>Xm</title>
<ellipse fill="none" stroke="black" cx="123" cy="-89.75" rx="26" ry="26"/>
<text text-anchor="middle" x="123" y="-86.05" font-family="Times,serif" font-size="14.00">Xm</text>
</g>
<!-- Xm&#45;&gt;p_y_x_pred -->
<g id="edge3" class="edge">
<title>Xm&#45;&gt;p_y_x_pred</title>
<path fill="none" stroke="black" d="M149.23,-89.75C159.74,-89.75 172.41,-89.75 184.99,-89.75"/>
</g>
<!-- Xo -->
<g id="node6" class="node">
<title>Xo</title>
<ellipse fill="gray" stroke="black" cx="123" cy="-22.75" rx="23" ry="23"/>
<text text-anchor="middle" x="123" y="-19.05" font-family="Times,serif" font-size="14.00">Xo</text>
</g>
<!-- Xo&#45;&gt;p_y_x_pred -->
<g id="edge4" class="edge">
<title>Xo&#45;&gt;p_y_x_pred</title>
<path fill="none" stroke="black" d="M143.12,-33.51C154.55,-39.95 169.75,-48.51 184.83,-57"/>
</g>
</g>
</svg>
