<?xml version="1.0" encoding="UTF-8" standalone="no"?>
<!DOCTYPE svg PUBLIC "-//W3C//DTD SVG 1.1//EN"
 "http://www.w3.org/Graphics/SVG/1.1/DTD/svg11.dtd">
<!-- Generated by graphviz version 3.0.0 (20220227.1548)
 -->
<!-- Title: G Pages: 1 -->
<svg width="506pt" height="147pt"
 viewBox="0.00 0.00 506.39 147.00" xmlns="http://www.w3.org/2000/svg" xmlns:xlink="http://www.w3.org/1999/xlink">
<g id="graph0" class="graph" transform="scale(1 1) rotate(0) translate(4 143)">
<title>G</title>
<polygon fill="white" stroke="transparent" points="-4,4 -4,-143 502.39,-143 502.39,4 -4,4"/>
<g id="clust1" class="cluster">
<title>cluster_0</title>
<polygon fill="none" stroke="black" points="145,-8 145,-131 490.39,-131 490.39,-8 145,-8"/>
<text text-anchor="middle" x="317.7" y="-115.8" font-family="Times,serif" font-size="14.00">N</text>
</g>
<!-- p_y -->
<g id="node1" class="node">
<title>p_y</title>
<polygon fill="none" stroke="black" points="215,-97 153,-97 153,-35 215,-35 215,-97"/>
<text text-anchor="middle" x="184" y="-62.3" font-family="Times,serif" font-size="14.00">P(yi|θ)</text>
</g>
<!-- y -->
<g id="node4" class="node">
<title>y</title>
<ellipse fill="gray" stroke="black" cx="269.85" cy="-63" rx="18.7" ry="18.7"/>
<text text-anchor="middle" x="269.85" y="-59.3" font-family="Times,serif" font-size="14.00">yi</text>
</g>
<!-- p_y&#45;&gt;y -->
<g id="edge4" class="edge">
<title>p_y&#45;&gt;y</title>
<path fill="none" stroke="black" d="M215.27,-64.92C227.09,-64.49 240.26,-64.02 250.58,-63.65"/>
</g>
<!-- p_x_y -->
<g id="node2" class="node">
<title>p_x_y</title>
<polygon fill="none" stroke="black" points="408.7,-100 324.7,-100 324.7,-16 408.7,-16 408.7,-100"/>
<text text-anchor="middle" x="366.7" y="-54.3" font-family="Times,serif" font-size="14.00">P(xi|yi, θ)</text>
</g>
<!-- x -->
<g id="node3" class="node">
<title>x</title>
<ellipse fill="gray" stroke="black" cx="463.54" cy="-58" rx="18.7" ry="18.7"/>
<text text-anchor="middle" x="463.54" y="-54.3" font-family="Times,serif" font-size="14.00">xi</text>
</g>
<!-- p_x_y&#45;&gt;x -->
<g id="edge6" class="edge">
<title>p_x_y&#45;&gt;x</title>
<path fill="none" stroke="black" d="M408.75,-58C421.16,-58 434.17,-58 444.29,-58"/>
</g>
<!-- y&#45;&gt;p_x_y -->
<g id="edge5" class="edge">
<title>y&#45;&gt;p_x_y</title>
<path fill="none" stroke="black" d="M288.69,-62.06C298.78,-61.53 311.84,-60.84 324.33,-60.18"/>
</g>
<!-- p_t -->
<g id="node5" class="node">
<title>p_t</title>
<polygon fill="none" stroke="black" points="45,-58.5 0,-58.5 0,-13.5 45,-13.5 45,-58.5"/>
<text text-anchor="middle" x="22.5" y="-32.3" font-family="Times,serif" font-size="14.00">P(θ)</text>
</g>
<!-- t -->
<g id="node6" class="node">
<title>t</title>
<ellipse fill="none" stroke="black" cx="99" cy="-36" rx="18" ry="18"/>
<text text-anchor="middle" x="99" y="-32.3" font-family="Times,serif" font-size="14.00">θ</text>
</g>
<!-- p_t&#45;&gt;t -->
<g id="edge1" class="edge">
<title>p_t&#45;&gt;t</title>
<path fill="none" stroke="black" d="M45.05,-36C56.39,-36 70.12,-36 80.75,-36"/>
</g>
<!-- t&#45;&gt;p_y -->
<g id="edge2" class="edge">
<title>t&#45;&gt;p_y</title>
<path fill="none" stroke="black" d="M116.4,-41.93C126.79,-45.68 140.55,-50.66 152.86,-55.11"/>
</g>
<!-- t&#45;&gt;p_x_y -->
<g id="edge3" class="edge">
<title>t&#45;&gt;p_x_y</title>
<path fill="none" stroke="black" d="M116.52,-31.42C124.97,-29.31 135.45,-27.05 145,-26 208.61,-19.02 226.06,-21.92 288.7,-35 300.44,-37.45 312.99,-40.85 324.47,-44.29"/>
</g>
</g>
</svg>
