<?xml version="1.0" encoding="UTF-8" standalone="no"?>
<!DOCTYPE svg PUBLIC "-//W3C//DTD SVG 1.1//EN"
 "http://www.w3.org/Graphics/SVG/1.1/DTD/svg11.dtd">
<!-- Generated by graphviz version 3.0.0 (20220227.1548)
 -->
<!-- Pages: 1 -->
<svg width="267pt" height="115pt"
 viewBox="0.00 0.00 267.20 115.00" xmlns="http://www.w3.org/2000/svg" xmlns:xlink="http://www.w3.org/1999/xlink">
<g id="graph0" class="graph" transform="scale(1 1) rotate(0) translate(4 111)">
<polygon fill="white" stroke="transparent" points="-4,4 -4,-111 263.2,-111 263.2,4 -4,4"/>
<!-- p_y_x -->
<g id="node1" class="node">
<title>p_y_x</title>
<polygon fill="none" stroke="black" points="187.2,-107 80.2,-107 80.2,0 187.2,0 187.2,-107"/>
<text text-anchor="middle" x="133.7" y="-49.8" font-family="Times,serif" font-size="14.00">P(y|x1,...,xn)</text>
</g>
<!-- y -->
<g id="node2" class="node">
<title>y</title>
<ellipse fill="none" stroke="black" cx="241.2" cy="-53.5" rx="18" ry="18"/>
<text text-anchor="middle" x="241.2" y="-49.8" font-family="Times,serif" font-size="14.00">y</text>
</g>
<!-- p_y_x&#45;&gt;y -->
<g id="edge1" class="edge">
<title>p_y_x&#45;&gt;y</title>
<path fill="none" stroke="black" d="M187.45,-53.5C200.22,-53.5 213,-53.5 222.77,-53.5"/>
</g>
<!-- x1 -->
<g id="node3" class="node">
<title>x1</title>
<ellipse fill="gray" stroke="black" cx="22.1" cy="-84.5" rx="22.2" ry="22.2"/>
<text text-anchor="middle" x="22.1" y="-80.8" font-family="Times,serif" font-size="14.00">x1</text>
</g>
<!-- x1&#45;&gt;p_y_x -->
<g id="edge2" class="edge">
<title>x1&#45;&gt;p_y_x</title>
<path fill="none" stroke="black" d="M43.46,-78.74C53.86,-75.8 67.04,-72.07 80.06,-68.39"/>
</g>
<!-- xn -->
<g id="node4" class="node">
<title>xn</title>
<ellipse fill="gray" stroke="black" cx="22.1" cy="-22.5" rx="22.2" ry="22.2"/>
<text text-anchor="middle" x="22.1" y="-18.8" font-family="Times,serif" font-size="14.00">xn</text>
</g>
<!-- xn&#45;&gt;p_y_x -->
<g id="edge3" class="edge">
<title>xn&#45;&gt;p_y_x</title>
<path fill="none" stroke="black" d="M43.46,-28.26C53.86,-31.2 67.04,-34.93 80.06,-38.61"/>
</g>
</g>
</svg>
