<?xml version="1.0" encoding="UTF-8" standalone="no"?>
<!DOCTYPE svg PUBLIC "-//W3C//DTD SVG 1.1//EN"
 "http://www.w3.org/Graphics/SVG/1.1/DTD/svg11.dtd">
<!-- Generated by graphviz version 3.0.0 (20220227.1548)
 -->
<!-- Title: G Pages: 1 -->
<svg width="553pt" height="133pt"
 viewBox="0.00 0.00 553.00 133.00" xmlns="http://www.w3.org/2000/svg" xmlns:xlink="http://www.w3.org/1999/xlink">
<g id="graph0" class="graph" transform="scale(1 1) rotate(0) translate(4 129)">
<title>G</title>
<polygon fill="white" stroke="transparent" points="-4,4 -4,-129 549,-129 549,4 -4,4"/>
<!-- p_t -->
<g id="node1" class="node">
<title>p_t</title>
<polygon fill="none" stroke="black" points="61,-97 0,-97 0,-36 61,-36 61,-97"/>
<text text-anchor="middle" x="30.5" y="-62.8" font-family="Times,serif" font-size="14.00">P(θ|D)</text>
</g>
<!-- t -->
<g id="node4" class="node">
<title>t</title>
<ellipse fill="none" stroke="black" cx="115" cy="-66.5" rx="18" ry="18"/>
<text text-anchor="middle" x="115" y="-62.8" font-family="Times,serif" font-size="14.00">θ</text>
</g>
<!-- p_t&#45;&gt;t -->
<g id="edge1" class="edge">
<title>p_t&#45;&gt;t</title>
<path fill="none" stroke="black" d="M61.28,-66.5C73.28,-66.5 86.69,-66.5 96.98,-66.5"/>
</g>
<!-- p_y_pred -->
<g id="node2" class="node">
<title>p_y_pred</title>
<polygon fill="none" stroke="black" points="228,-125 169,-125 169,-66 228,-66 228,-125"/>
<text text-anchor="middle" x="198.5" y="-91.8" font-family="Times,serif" font-size="14.00">P(Y|θ)</text>
</g>
<!-- Y -->
<g id="node5" class="node">
<title>Y</title>
<ellipse fill="none" stroke="black" cx="282" cy="-89.5" rx="18" ry="18"/>
<text text-anchor="middle" x="282" y="-85.8" font-family="Times,serif" font-size="14.00">Y</text>
</g>
<!-- p_y_pred&#45;&gt;Y -->
<g id="edge6" class="edge">
<title>p_y_pred&#45;&gt;Y</title>
<path fill="none" stroke="black" d="M228,-93.4C239.94,-92.52 253.42,-91.53 263.8,-90.77"/>
</g>
<!-- p_x_y_pred -->
<g id="node3" class="node">
<title>p_x_y_pred</title>
<polygon fill="none" stroke="black" points="457,-121 336,-121 336,0 457,0 457,-121"/>
<text text-anchor="middle" x="396.5" y="-56.8" font-family="Times,serif" font-size="14.00">P(Xo, Xm |Y, θ)</text>
</g>
<!-- Xm -->
<g id="node6" class="node">
<title>Xm</title>
<ellipse fill="none" stroke="black" cx="519" cy="-94.5" rx="26" ry="26"/>
<text text-anchor="middle" x="519" y="-90.8" font-family="Times,serif" font-size="14.00">Xm</text>
</g>
<!-- p_x_y_pred&#45;&gt;Xm -->
<g id="edge4" class="edge">
<title>p_x_y_pred&#45;&gt;Xm</title>
<path fill="none" stroke="black" d="M457.04,-77.3C470.09,-80.98 483.18,-84.67 493.86,-87.69"/>
</g>
<!-- Xo -->
<g id="node7" class="node">
<title>Xo</title>
<ellipse fill="gray" stroke="black" cx="519" cy="-27.5" rx="23" ry="23"/>
<text text-anchor="middle" x="519" y="-23.8" font-family="Times,serif" font-size="14.00">Xo</text>
</g>
<!-- p_x_y_pred&#45;&gt;Xo -->
<g id="edge5" class="edge">
<title>p_x_y_pred&#45;&gt;Xo</title>
<path fill="none" stroke="black" d="M457.04,-44.19C471.27,-40.3 485.56,-36.38 496.72,-33.33"/>
</g>
<!-- t&#45;&gt;p_y_pred -->
<g id="edge2" class="edge">
<title>t&#45;&gt;p_y_pred</title>
<path fill="none" stroke="black" d="M132.1,-72.23C142.59,-75.96 156.56,-80.93 168.89,-85.32"/>
</g>
<!-- t&#45;&gt;p_x_y_pred -->
<g id="edge3" class="edge">
<title>t&#45;&gt;p_x_y_pred</title>
<path fill="none" stroke="black" d="M132.6,-62.54C142.99,-60.27 156.69,-57.65 169,-56.5 225.39,-51.23 290.01,-53.15 335.75,-55.85"/>
</g>
<!-- Y&#45;&gt;p_x_y_pred -->
<g id="edge7" class="edge">
<title>Y&#45;&gt;p_x_y_pred</title>
<path fill="none" stroke="black" d="M299.6,-85.22C309.38,-82.7 322.41,-79.34 335.71,-75.91"/>
</g>
</g>
</svg>
